<?xml version="1.0" encoding="UTF-8" standalone="no"?>
<!-- Created with Inkscape (http://www.inkscape.org/) -->

<svg
   xmlns:dc="http://purl.org/dc/elements/1.1/"
   xmlns:cc="http://creativecommons.org/ns#"
   xmlns:rdf="http://www.w3.org/1999/02/22-rdf-syntax-ns#"
   xmlns:svg="http://www.w3.org/2000/svg"
   xmlns="http://www.w3.org/2000/svg"
   xmlns:sodipodi="http://sodipodi.sourceforge.net/DTD/sodipodi-0.dtd"
   xmlns:inkscape="http://www.inkscape.org/namespaces/inkscape"
   width="250"
   height="28"
   viewBox="0 0 66.145837 7.4083335"
   version="1.1"
   id="svg8"
   inkscape:version="0.92.4 5da689c313, 2019-01-14"
   sodipodi:docname="bitn.svg">
  <defs
     id="defs2" />
  <sodipodi:namedview
     id="base"
     pagecolor="#ffffff"
     bordercolor="#666666"
     borderopacity="1.0"
     inkscape:pageopacity="0.0"
     inkscape:pageshadow="2"
     inkscape:zoom="4"
     inkscape:cx="153.47894"
     inkscape:cy="60"
     inkscape:document-units="mm"
     inkscape:current-layer="layer1"
     showgrid="false"
     units="px"
     inkscape:window-width="1920"
     inkscape:window-height="1039"
     inkscape:window-x="0"
     inkscape:window-y="0"
     inkscape:window-maximized="1" />
  <metadata
     id="metadata5">
    <rdf:RDF>
      <cc:Work
         rdf:about="">
        <dc:format>image/svg+xml</dc:format>
        <dc:type
           rdf:resource="http://purl.org/dc/dcmitype/StillImage" />
        <dc:title></dc:title>
      </cc:Work>
    </rdf:RDF>
  </metadata>
  <g
     inkscape:label="Layer 1"
     inkscape:groupmode="layer"
     id="layer1"
     transform="translate(0,-289.59165)">
    <g
       aria-label="Barrett Info Tech"
       transform="scale(1.026085,0.97457813)"
       style="font-style:normal;font-variant:normal;font-weight:normal;font-stretch:normal;font-size:7.82775497px;line-height:1.25;font-family:Tomorrow;-inkscape-font-specification:Tomorrow;letter-spacing:0px;word-spacing:0px;fill:#000000;fill-opacity:1;stroke:none;stroke-width:0.19569388"
       id="text12">
      <path
         d="m 1.9075152,303.83096 v -5.76905 h 3.0919632 l 0.8140865,0.82191 v 1.3542 l -0.3600767,0.48532 0.6653592,0.67319 v 1.61252 l -0.8219143,0.82191 z m 0.7123257,-3.35028 h 2.1526326 l 0.3287657,-0.44618 v -0.90802 l -0.4226987,-0.43835 -2.0586996,0.008 z m 0,2.71623 h 2.3561542 l 0.4305266,-0.43052 v -1.18199 l -0.4540098,-0.46967 h -2.332671 z"
         style="stroke-width:0.19569388"
         id="path59" />
      <path
         d="m 7.7156987,303.83096 -0.8140866,-0.82191 v -0.9315 l 0.8140866,-0.82192 h 2.0821828 v -0.5088 L 9.3751827,300.3163 H 7.4338995 v -0.57925 h 2.2387379 l 0.8140866,0.82191 v 3.272 H 9.7978815 v -0.63405 l -0.6340482,0.63405 z m 0.3052824,-0.54794 h 0.9706416 l 0.8062588,-0.79843 v -0.68884 l -1.7769004,0.008 -0.4305265,0.4227 v 0.62622 z"
         style="stroke-width:0.19569388"
         id="path61" />
      <path
         d="m 11.731334,303.83096 v -4.09391 h 0.688843 v 0.73581 l 0.712326,-0.73581 h 1.048919 v 0.68884 h -1.017608 l -0.743637,0.76712 v 2.63795 z"
         style="stroke-width:0.19569388"
         id="path63" />
      <path
         d="m 14.909389,303.83096 v -4.09391 h 0.688843 v 0.73581 l 0.712325,-0.73581 h 1.048919 v 0.68884 h -1.017608 l -0.743636,0.76712 v 2.63795 z"
         style="stroke-width:0.19569388"
         id="path65" />
      <path
         d="m 18.729307,303.83096 -0.821914,-0.82191 v -2.45009 l 0.821914,-0.82191 h 1.823867 l 0.821915,0.82191 v 1.47945 h -2.778853 v 0.7906 l 0.430526,0.43053 h 2.277877 v 0.57142 z m -0.133071,-2.3405 h 2.09001 v -0.77494 l -0.430526,-0.43053 h -1.228958 l -0.430526,0.43053 z"
         style="stroke-width:0.19569388"
         id="path67" />
      <path
         d="m 23.332014,303.83096 -0.720153,-0.71232 v -2.83365 h -0.430527 v -0.54794 h 0.446182 l 0.172211,-1.04892 h 0.500976 v 1.04892 h 0.868881 v 0.54794 h -0.868881 v 2.59099 l 0.367905,0.38356 h 0.681014 v 0.57142 z"
         style="stroke-width:0.19569388"
         id="path69" />
      <path
         d="m 25.954304,303.83096 -0.720153,-0.71232 v -2.83365 h -0.430527 v -0.54794 h 0.446182 l 0.172211,-1.04892 h 0.500976 v 1.04892 h 0.868881 v 0.54794 h -0.868881 v 2.59099 l 0.367904,0.38356 h 0.681015 v 0.57142 z"
         style="stroke-width:0.19569388"
         id="path71" />
      <path
         d="m 29.390668,303.83096 v -0.65753 h 0.704498 v -4.45399 h -0.704498 v -0.65753 h 2.121321 v 0.65753 h -0.704498 v 4.45399 h 0.704498 v 0.65753 z"
         style="stroke-width:0.19569388"
         id="path73" />
      <path
         d="m 32.639174,303.83096 v -4.09391 h 0.688843 v 0.73581 l 0.712325,-0.73581 h 1.510757 l 0.814087,0.82191 v 3.272 h -0.688843 v -3.09979 l -0.414871,-0.44618 h -1.041091 l -0.892364,0.90802 v 2.63795 z"
         style="stroke-width:0.19569388"
         id="path75" />
      <path
         d="m 37.641097,303.83096 v -3.54597 h -0.422699 v -0.54794 h 0.422699 v -0.95499 l 0.720153,-0.72015 h 1.017608 v 0.57142 h -0.681014 l -0.367905,0.38356 v 0.72016 h 0.876709 v 0.54794 h -0.876709 v 3.54597 z"
         style="stroke-width:0.19569388"
         id="path77" />
      <path
         d="m 40.717398,303.83096 -0.821914,-0.82191 v -2.45009 l 0.821914,-0.82191 h 1.941283 l 0.821914,0.82191 v 2.45009 l -0.821914,0.82191 z m 0.297455,-0.54794 h 1.346374 l 0.430526,-0.43053 -0.0078,-2.13697 -0.422698,-0.43053 h -1.346374 l -0.430527,0.43053 v 2.13697 z"
         style="stroke-width:0.19569388"
         id="path79" />
      <path
         d="m 47.582319,303.83096 v -5.11152 h -1.714278 v -0.65753 h 4.140882 v 0.65753 h -1.714278 v 5.11152 z"
         style="stroke-width:0.19569388"
         id="path81" />
      <path
         d="m 50.705576,303.83096 -0.821914,-0.82191 v -2.45009 l 0.821914,-0.82191 h 1.823867 l 0.821914,0.82191 v 1.47945 h -2.778853 v 0.7906 l 0.430527,0.43053 h 2.277877 v 0.57142 z m -0.133072,-2.3405 h 2.090011 v -0.77494 l -0.430527,-0.43053 h -1.228957 l -0.430527,0.43053 z"
         style="stroke-width:0.19569388"
         id="path83" />
      <path
         d="m 55.269141,303.83096 -0.821915,-0.82191 v -2.45009 l 0.821915,-0.82191 h 1.870833 l 0.720153,0.71232 v 0.64971 h -0.688842 v -0.4227 l -0.391388,-0.39139 h -1.213302 l -0.430526,0.43053 v 2.10566 l 0.430526,0.43836 h 2.254394 v 0.57142 z"
         style="stroke-width:0.19569388"
         id="path85" />
      <path
         d="m 58.916861,303.83096 v -5.76905 h 0.688843 v 2.32484 l 0.62622,-0.6497 h 1.510757 l 0.814086,0.82191 v 3.272 h -0.688842 v -3.09979 l -0.414871,-0.44618 h -1.041092 l -0.806258,0.82191 v 2.72406 z"
         style="stroke-width:0.19569388"
         id="path87" />
    </g>
  </g>
</svg>
