<?xml version="1.0" encoding="UTF-8" standalone="no"?>
<!-- Created with Inkscape (http://www.inkscape.org/) -->

<svg
   xmlns:dc="http://purl.org/dc/elements/1.1/"
   xmlns:cc="http://creativecommons.org/ns#"
   xmlns:rdf="http://www.w3.org/1999/02/22-rdf-syntax-ns#"
   xmlns:svg="http://www.w3.org/2000/svg"
   xmlns="http://www.w3.org/2000/svg"
   xmlns:sodipodi="http://sodipodi.sourceforge.net/DTD/sodipodi-0.dtd"
   xmlns:inkscape="http://www.inkscape.org/namespaces/inkscape"
   width="250"
   height="28"
   viewBox="0 0 66.145837 7.4083335"
   version="1.1"
   id="svg8"
   inkscape:version="0.92.4 5da689c313, 2019-01-14"
   sodipodi:docname="bitnw.svg">
  <defs
     id="defs2" />
  <sodipodi:namedview
     id="base"
     pagecolor="#ffffff"
     bordercolor="#666666"
     borderopacity="1.0"
     inkscape:pageopacity="0.0"
     inkscape:pageshadow="2"
     inkscape:zoom="4"
     inkscape:cx="101.97894"
     inkscape:cy="51.166657"
     inkscape:document-units="mm"
     inkscape:current-layer="text12"
     showgrid="false"
     units="px"
     inkscape:window-width="1920"
     inkscape:window-height="1043"
     inkscape:window-x="1920"
     inkscape:window-y="567"
     inkscape:window-maximized="1" />
  <metadata
     id="metadata5">
    <rdf:RDF>
      <cc:Work
         rdf:about="">
        <dc:format>image/svg+xml</dc:format>
        <dc:type
           rdf:resource="http://purl.org/dc/dcmitype/StillImage" />
        <dc:title />
      </cc:Work>
    </rdf:RDF>
  </metadata>
  <g
     inkscape:label="Layer 1"
     inkscape:groupmode="layer"
     id="layer1"
     transform="translate(0,-289.59165)">
    <g
       aria-label="Barrett Info Tech"
       transform="scale(1.026085,0.97457813)"
       style="font-style:normal;font-variant:normal;font-weight:normal;font-stretch:normal;font-size:7.82775497px;line-height:1.25;font-family:Tomorrow;-inkscape-font-specification:Tomorrow;letter-spacing:0px;word-spacing:0px;fill:#000000;fill-opacity:1;stroke:none;stroke-width:0.19569388"
       id="text12">
      <g
         aria-label="Barrett Info Tech"
         transform="matrix(0.34036524,0,0,0.35835369,-0.2944217,296.32153)"
         style="font-style:normal;font-variant:normal;font-weight:normal;font-stretch:normal;font-size:24px;line-height:1.25;font-family:Tomorrow;-inkscape-font-specification:Tomorrow;letter-spacing:0px;word-spacing:0px;fill:#000000;fill-opacity:1;stroke:none"
         id="flowRoot4531">
        <path
           d="M 2.588,21.75 V 4.062 h 9.48 l 2.496,2.52 v 4.152 l -1.104,1.488 2.04,2.064 v 4.944 l -2.52,2.52 z M 4.772,11.478 h 6.6 L 12.38,10.11 V 7.326 L 11.084,5.982 4.772,6.006 Z m 0,8.328 h 7.224 l 1.32,-1.32 v -3.624 l -1.392,-1.44 H 4.772 Z"
           style="fill:#f8f8ff;fill-opacity:1"
           id="path817" />
        <path
           d="m 20.395967,21.75 -2.496,-2.52 v -2.856 l 2.496,-2.52 h 6.384 v -1.56 l -1.296,-1.32 h -5.952 V 9.198 h 6.864 l 2.496,2.52 V 21.75 h -2.112 v -1.944 l -1.944,1.944 z m 0.936,-1.68 h 2.976 l 2.472,-2.448 V 15.51 l -5.448,0.024 -1.32,1.296 v 1.92 z"
           style="fill:#f8f8ff;fill-opacity:1"
           id="path819" />
        <path
           d="M 32.70796,21.75 V 9.198 h 2.112 v 2.256 l 2.184,-2.256 h 3.216 v 2.112 h -3.12 l -2.28,2.352 v 8.088 z"
           style="fill:#f8f8ff;fill-opacity:1"
           id="path821" />
        <path
           d="M 42.451917,21.75 V 9.198 h 2.112 v 2.256 l 2.184,-2.256 h 3.216 v 2.112 h -3.12 l -2.28,2.352 v 8.088 z"
           style="fill:#f8f8ff;fill-opacity:1"
           id="path823" />
        <path
           d="m 54.163837,21.75 -2.52,-2.52 v -7.512 l 2.52,-2.52 h 5.592 l 2.52,2.52 v 4.536 h -8.52 v 2.424 l 1.32,1.32 h 6.984 v 1.752 z m -0.408,-7.176 h 6.408 v -2.376 l -1.32,-1.32 h -3.768 l -1.32,1.32 z"
           style="fill:#f8f8ff;fill-opacity:1"
           id="path825" />
        <path
           d="m 68.275795,21.75 -2.208,-2.184 v -8.688 h -1.32 v -1.68 h 1.368 l 0.528,-3.216 h 1.536 v 3.216 h 2.664 v 1.68 h -2.664 v 7.944 l 1.128,1.176 h 2.088 v 1.752 z"
           style="fill:#f8f8ff;fill-opacity:1"
           id="path827" />
        <path
           d="m 76.315773,21.75 -2.208,-2.184 v -8.688 h -1.32 v -1.68 h 1.368 l 0.528,-3.216 h 1.536 v 3.216 h 2.664 v 1.68 h -2.664 v 7.944 l 1.128,1.176 h 2.088 v 1.752 z"
           style="fill:#f8f8ff;fill-opacity:1"
           id="path829" />
        <path
           d="m 86.851708,21.75 v -2.016 h 2.16 V 6.078 h -2.16 V 4.062 h 6.504 v 2.016 h -2.16 v 13.656 h 2.16 v 2.016 z"
           style="fill:#f8f8ff;fill-opacity:1"
           id="path831" />
        <path
           d="M 96.811674,21.75 V 9.198 h 2.112 v 2.256 l 2.183996,-2.256 h 4.632 l 2.496,2.52 V 21.75 h -2.112 v -9.504 l -1.272,-1.368 h -3.192 l -2.735996,2.784 v 8.088 z"
           style="fill:#f8f8ff;fill-opacity:1"
           id="path833" />
        <path
           d="M 112.14763,21.75 V 10.878 h -1.296 v -1.68 h 1.296 V 6.27 l 2.208,-2.208 h 3.12 v 1.752 h -2.088 l -1.128,1.176 v 2.208 h 2.688 v 1.68 h -2.688 V 21.75 Z"
           style="fill:#f8f8ff;fill-opacity:1"
           id="path835" />
        <path
           d="m 121.57961,21.75 -2.52,-2.52 v -7.512 l 2.52,-2.52 h 5.952 l 2.52,2.52 v 7.512 l -2.52,2.52 z m 0.912,-1.68 h 4.128 l 1.32,-1.32 -0.024,-6.552 -1.296,-1.32 h -4.128 l -1.32,1.32 v 6.552 z"
           style="fill:#f8f8ff;fill-opacity:1"
           id="path837" />
        <path
           d="M 142.62756,21.75 V 6.078 h -5.256 V 4.062 h 12.696 v 2.016 h -5.256 V 21.75 Z"
           style="fill:#f8f8ff;fill-opacity:1"
           id="path839" />
        <path
           d="m 152.20349,21.75 -2.52,-2.52 v -7.512 l 2.52,-2.52 h 5.592 l 2.52,2.52 v 4.536 h -8.52 v 2.424 l 1.32,1.32 h 6.984 v 1.752 z m -0.408,-7.176 h 6.408 v -2.376 l -1.32,-1.32 h -3.768 l -1.32,1.32 z"
           style="fill:#f8f8ff;fill-opacity:1"
           id="path841" />
        <path
           d="m 166.19545,21.75 -2.52,-2.52 v -7.512 l 2.52,-2.52 h 5.736 l 2.208,2.184 v 1.992 h -2.112 v -1.296 l -1.2,-1.2 h -3.72 l -1.32,1.32 v 6.456 l 1.32,1.344 h 6.912 v 1.752 z"
           style="fill:#f8f8ff;fill-opacity:1"
           id="path843" />
        <path
           d="M 177.37941,21.75 V 4.062 h 2.112 v 7.128 l 1.92,-1.992 h 4.632 l 2.496,2.52 V 21.75 h -2.112 v -9.504 l -1.272,-1.368 h -3.192 l -2.472,2.52 v 8.352 z"
           style="fill:#f8f8ff;fill-opacity:1"
           id="path845" />
      </g>
    </g>
  </g>
</svg>
